<?xml version="1.0" encoding="UTF-8"?>
<svg xmlns="http://www.w3.org/2000/svg" viewBox="0 0 151 151" width="151" height="151">
  <!-- Background - no border, CSS handles rounded corners -->
  <rect x="0" y="0" width="151" height="151" fill="#1e1e23"/>

  <!-- Ant centered and scaled to fit -->
  <g transform="translate(75.5, 75.5) scale(0.58) translate(-99, -124)">
    <g transform="matrix(1.25,0,0,-1.25,-4.5164234,245.39234)">
      <g fill-rule="evenodd">
        <path fill="#87CEEB" d="m 102.29978,143.18672 c -4.518999,-1.667 -13.366999,0.054 -15.839999,-3.06 0.581,-1.843 2.418,-3.599 3.42,-5.94 0.88,-2.055 2.366,-4.637 2.52,-6.66 0.074,-0.973 -0.512,-2.254 -0.72,-3.42 -0.611,-3.422 -1.256,-6.265 -4.68,-6.84 -1.686,-0.283 -3.491,0.834 -5.58,-0.18 1.25,-1.636 3.633,-2.799 4.32,-5.22 0.679,-2.396 -0.303,-4.837 -0.9,-7.2 2.523,0.663 4.064,3.85 6.3,5.4 0.782,1.472 1.491,2.792 2.7,4.32 0.9,1.139 2.82,2.448 3.24,3.78 0.962,3.053 -0.119,10.046 0.36,13.32 0.111,0.759 0.489,1.934 1.44,2.16 1.096,-1.251 -0.914,-2.421 -0.72,-3.96 1.602,0.285 2.063999,2.219 2.699999,3.42 0.685,1.293 1.56,2.368 2.34,3.6 0.523,0.827 0.718,1.901 1.26,2.7 1.143,1.686 2.764,2.816 3.6,5.04 0.704,0.284 0.372,-0.467 0.72,-0.54 0.476,0.304 -0.16,1.719 0.54,1.8 0.48,0.498 2.072,-0.897 2.88,-1.26 -2.453,-1.564 -3.959,-3.863 -5.76,-6.48 -1.109,-1.61 -1.655,-2.997 -2.88,-4.86 -0.898,-1.365 -2.325,-2.447 -2.88,-3.6 -1.886999,-3.922 -0.57,-8.702 -2.159999,-13.5 -0.875,-2.638 -3.958,-6.591 -5.94,-8.46 -2.856,-2.692 -6.124,-4.695 -8.64,-7.560005 0.042,-2.958 0.349,-5.651 1.26,-7.74 4.412,-1.799 7.683,2.603 12.42,1.62 2.357,1.722 9.057999,2.381 11.519999,0.72 3.304,-5.995 5.968,-12.632 7.38,-20.52 2.378,-2.062 5.34,-3.54 7.56,-5.76 0.238,-0.301 0.477,-0.603 0.36,-1.26 4.676,-1.804 7.472,-5.488 9.54,-9.9 -0.958,-0.176 -1.63,0.695 -2.7,-0.18 0.128,0.805 -0.966,1.576 -0.54,3.24 -2.4,1.32 -4.634,2.805 -5.94,5.22 -3.689,0.978 -5.728,3.571 -8.1,5.94 -0.541,0.54 -1.33,0.83 -1.62,1.62 -0.132,0.37 -1.187,-0.992 -1.44,0 -2.36,6.581 -3.371,14.509 -6.3,20.52 -0.731,-1.618 -2.299,-0.928 -3.96,-1.26 -2.026,-0.404 -3.814999,-2.089 -5.579999,-2.34 -2.066,-0.294 -4.054,0.552 -5.94,0.18 -1.903,-0.375 -2.744,-1.891 -4.68,-1.98 -0.05,-0.874 0.488,-1.67 -0.18,-2.16 -2.752,0.309 -2.646,3.474 -5.4,3.78 -0.131,-2.71 2.816,-2.344 2.7,-5.04 0.527,-0.253 1.076,-0.484 1.98,-0.36 7.269,-4.611 17.435999,-6.323 23.219999,-12.42 0.249,-3.033 1.216,-5.747 1.44,-8.82 0.341,-4.691 -0.93,-10.268 0.18,-14.22 0.399,-1.422 2.125,-4.688 3.06,-6.3 0.385,-0.664 1.078,-1.156 1.44,-1.8 0.926,-1.651 0.797,-3.404 1.8,-4.68 1.458,-1.854 2.537,-5.505 3.06,-8.28 -0.811,-0.69 -1.401,-1.6 -2.7,-1.8 -0.48,1.073 0.573,1.338 0.54,2.52 -0.051,1.797 -3.228,6.998 -4.32,9 -1.682,3.082 -3.29,6.116 -4.14,9 -0.305,1.036 -1.698,2.026 -2.16,3.06 -0.928,2.077 -0.049,4.856 0.18,6.66 0.268,2.109 0.159,4.94 0,7.2 -0.145,2.059 0.477,5.011 0.18,6.12 -0.61,2.279 -7.094,3.682 -9.539999,4.5 -4.202,1.405 -8.207,2.746 -10.26,6.3 -1.313,-1.047 -2.797,0.098 -4.68,0 -0.468,-1.734 1.32,-2.59 1.62,-4.14 6.204,-1.18 9.685,-3.91 11.52,-9.72 1.777,-5.628 1.592,-14.357 -0.72,-19.8 -0.687,-1.618 -1.912,-3.409 -2.88,-5.04 -2.739,-4.61 -6.658,-9.779 -10.8,-12.6 -3.079,0.281 -4.55,2.17 -7.02,3.06 -2.847,3.522 -6.323,5.851 -8.46,10.98 -1,2.4 -2.603,5.205 -3.06,7.38 -1.777,8.444 -0.601,17.68 3.78,22.68 2.605,0.815 4.431,2.409 7.56,2.7 -0.373,2.172 0.814,2.786 0.72,4.68 -2.318,0.411 -4.203,-1.287 -5.76,-2.52 -1.62,-1.282 -3.214,-2.662 -4.86,-3.78 -3.484,-2.366 -7.477,-3.777 -10.98,-6.3 -0.232,-4.99 0.145,-9.279 0.9,-13.5 0.587,-3.283 2.428,-6.046 0.72,-9.36 -0.826,-1.602 -2.603,-2.952 -3.78,-4.68 -1.144,-1.678 -2.369,-3.646 -3.24,-5.22 -1.976,-3.566 -0.871,-9.615 -5.402,-11.34 -0.509,0.896 0.466,1.385 0.72,2.16 1.408,4.307 1.789,10.093 5.4,12.42 0.034,0.754 -0.884,0.556 -0.72,1.44 1.142,2.645 4.331,3.907 4.68,7.2 0.23,2.168 -1.308,5.464 -1.62,8.82 -0.405,4.346 -0.93,10.924 1.26,13.86 2.941,3.501 6.462,6.03 10.8,8.64 2.033,1.224 4.459,2.099 6.3,3.42 1.451,1.041 2.514,2.542 4.86,2.88 0.075,1.065 0.645,1.635 0.72,2.7 0.553,0.647 1.705,0.695 1.98,1.62 -2.486,0.755 -3.302,-3.141 -5.76,-3.6 -0.536,1.018 0.181,2.173 0.54,2.88 -0.797,0.197 -0.895,-0.305 -1.44,-0.36 -1.437,2.369 -4.043,0.714 -7.02,0.9 -4.113,0.257 -8.31,4.098 -10.8,0.36 0.063,-3.44 -2.124,-5.548 -2.88,-8.1 -0.805,-2.714 -0.006,-6.681 -1.8,-8.64 -4.406,-3.334 -7.974,-7.506 -12.78,-10.44 -0.72,-1.712 -2.257,-3.254 -4.5,-2.88 2.706,3.234 6.248,5.632 8.46,9.36 0.959,0.253 2.099,0.772 3.06,1.44 1.421,0.988 3.617,2.779 3.96,3.96 0.788,2.718 -0.247,6.008 0.36,8.82 0.556,2.576 2.629,9.809 4.86,10.8 6.34,2.817 14.623,-2.377 21.78,-1.44 0.518,3.386 1.324,7.511 -0.72,9.720005 -6.486,1.507 -9.879,6.029 -12.42,12.06 -0.498,1.18 -1.333,2.126 -1.8,3.24 -1.606,3.83 -1.724,8.33 -1.98,13.32 -1.258,2.909 -4.948,4.047 -7.2,6.3 -1.131,1.131 -1.904,2.824 -3.24,3.96 -1.58,1.343 -3.976,2.117 -3.96,5.04 2.163,1.347 2.433,-1.177 3.6,-2.52 0.486,-0.56 1.532,-1.442 2.34,-2.16 0.796,-0.708 1.59,-1.565 2.34,-2.16 0.687,-0.546 1.916,-0.698 2.34,-1.62 0.304,-0.662 1.53,-1.151 2.52,-1.98 1.185,-0.993 1.674,-2.597 3.06,-2.88 1.079,1.111 -1.612,2.881 -0.54,3.96 0.751,-0.571 1.865,-1.923 1.98,-3.06 0.098,-0.973 -0.616,-1.837 -0.72,-2.88 -0.429,-4.312 1.958,-9.51 1.62,-14.04 4.527,-3.213 6.952,-8.528 10.98,-12.24 0.102,2.717 -0.271,6.824 0.72,9.18 0.889,1.691 3.441,1.719 4.32,3.42 -5.105,-0.826 -9.813,0.586 -10.62,5.04 -0.156,0.859 0.21,1.871 0.18,2.88 -0.052,1.674 -0.641,3.008 -0.18,4.86 0.929,3.731 3.193,7.623 5.04,9.36 -4.119,4.334 -16.587,-0.83 -18.36,5.4 -0.555,6.117 -2.733,10.699 -5.04,15.12 -1.334,2.555 -3.405,5.112 -3.42,8.28 1.796,0.459 2.948,-1.243 3.6,-2.34 2.187,-3.676 3.827,-9.772 5.58,-14.76 0.859,-2.444 1.607,-3.892 1.62,-6.84 5.833,0.308 13.174,-0.655 17.46,-3.06 0.827,1.333 0.994,3.326 1.98,4.5 2.202,1.809 4.197,3.553 6.84,0.9 0.758,-0.762 1.364,-2.3 1.44,-3.24 1.742,-0.615 3.81,0.05 6.48,0.72 1.824,0.458 3.621,0.616 5.22,0.9 1.868,0.332 3.563,0.943 5.939999,0.72 0.688,4.185 1.525,10.142 3.96,14.04 0.288,2.832 1.063,5.177 2.7,6.66 0.153,2.426 1.706,3.454 2.7,5.04 1.02,0.692 1.843,-0.307 1.8,-1.62 -0.03,-0.917 -1.427,-2.568 -2.16,-3.78 -3.622,-5.985 -6.647,-13.61 -7.56,-22.32"/>
      </g>
    </g>
  </g>
</svg>
